<svg width="900" height="80" viewBox="0 0 900 80" fill="none" xmlns="http://www.w3.org/2000/svg">
  <defs>
    
    <pattern id="sl4" x="0" y="0" width="1" height="2" patternUnits="userSpaceOnUse">
      <rect x="0" y="0" width="1" height="1" fill="rgba(0,0,0,0.22)"/>
    </pattern>
    
    <pattern id="grid4" x="0" y="0" width="20" height="20" patternUnits="userSpaceOnUse">
      <path d="M 20 0 L 0 0 0 20" fill="none" stroke="#141410" stroke-width="0.4"/>
    </pattern>
  </defs>
  <rect width="900" height="80" fill="#060606"/>
  <rect width="900" height="80" fill="url(#grid4)" opacity="0.5"/>
  <rect width="900" height="80" fill="url(#sl4)"/>
  <rect x="0.5" y="0.5" width="899" height="79" stroke="#2e2e28" stroke-width="1" fill="none"/>
  <polyline points="0,14 0,0 14,0" stroke="white" stroke-width="1.2" fill="none"/>
  <polyline points="900,14 900,0 886,0" stroke="white" stroke-width="1.2" fill="none"/>
  <polyline points="0,66 0,80 14,80" stroke="white" stroke-width="1.2" fill="none"/>
  <polyline points="900,66 900,80 886,80" stroke="white" stroke-width="1.2" fill="none"/>

  <!-- top dashed separator -->
  <line x1="22" y1="16" x2="878" y2="16" stroke="#2e2e28" stroke-width="0.5" stroke-dasharray="5,5"/>

  <!-- log entries -->
  <text x="450" y="35" font-family="'Courier New', Courier, monospace" font-size="9" letter-spacing="2" fill="#505048" text-anchor="middle">──────────── END OF PROFILE DATA ────────────</text>
  <text x="450" y="52" font-family="'Courier New', Courier, monospace" font-size="8.5" letter-spacing="2" fill="#555550" text-anchor="middle">Property of Mortada · All activity subject to logging.</text>
  <text x="450" y="67" font-family="'Courier New', Courier, monospace" font-size="8" letter-spacing="1.5" fill="#505048" text-anchor="middle">profile-krn-1.0.0  ↔  ctOS-1.0.0-a  ::  Node GITHUB.COM</text>

  <!-- bottom dashed -->
  <line x1="22" y1="74" x2="878" y2="74" stroke="#2e2e28" stroke-width="0.5" stroke-dasharray="5,5"/>

  <!-- cursor -->
  <rect x="682" y="58" width="8" height="11" fill="#505048" opacity="0.8"/>
</svg>